<svg xmlns="http://www.w3.org/2000/svg" viewBox="0 0 1882.33 1666.12">
    <title>wan trans</title>
    <g id="Layer_2" data-name="Layer 2">
        <g id="Layer_1-2" data-name="Layer 1">
            <path fill="#120056" stroke="#000" d="M1121.85,873.48c-15,0-31.54,5-31.54,20S1106.83,913,1121.85,913c14,0,29.52-4.51,35.53-13V886.49C1151.37,878,1135.86,873.48,1121.85,873.48Zm0,0c-15,0-31.54,5-31.54,20S1106.83,913,1121.85,913c14,0,29.52-4.51,35.53-13V886.49C1151.37,878,1135.86,873.48,1121.85,873.48Zm742.48-107.56L1460.89,67.14A134.27,134.27,0,0,0,1344.6,0H537.72A134.27,134.27,0,0,0,421.43,67.14L18,765.92a134.28,134.28,0,0,0,0,134.29L421.43,1599a134.27,134.27,0,0,0,116.29,67.14H1344.6A134.27,134.27,0,0,0,1460.89,1599l403.44-698.77A134.28,134.28,0,0,0,1864.33,765.92Zm-1273,276.73H306V985.59h285.3Zm337.34-77.08h-98.1L791,830.43,752,965.57h-98.1L583.79,723.82h92.6l32,133.14L751,723.82h80.58L873.6,857l32-133.14h93.09Zm318.82,0h-90.09v-23c-13.51,17-43,29-73.07,29-36,0-83.09-24.53-83.09-79.58,0-60.07,47-77.08,83.09-77.08,31.53,0,60.06,10,73.07,26.52v-25c0-17-15.51-30-45-30-22.53,0-48.06,9-67.07,23.52l-30.54-55.56c32.54-26,77.58-36.53,114.12-36.53,60.06,0,118.62,21,118.62,101.6Zm303.81,0h-90.09V831.93c0-25-13.51-34.53-35-34.53-20.52,0-31,10.51-38.54,19V965.57h-90.09V723.82h90.09v27.53c14-16,40.55-33.53,83.09-33.53,56.06,0,80.58,34,80.58,76.07Zm-429.43-92.09c-15,0-31.54,5-31.54,20S1106.83,913,1121.85,913c14,0,29.52-4.51,35.53-13V886.49C1151.37,878,1135.86,873.48,1121.85,873.48Z"/>
        </g>
    </g>
</svg>